<svg x="0" y="0" width="48" height="48" version="1.1" xmlns="http://www.w3.org/2000/svg">
    <defs>
        <linearGradient x1="9.35463" y1="9.88225" x2="62.05246" y2="57.5931"
            gradientUnits="userSpaceOnUse" id="color-1">
            <stop offset="0" stop-color="#000000" stop-opacity="0.17"></stop>
            <stop offset="1" stop-color="#000000" stop-opacity="0"></stop>
        </linearGradient>
        <filter id="dropshadow">
            <feColorMatrix type="matrix"
                values="0 0 0 0 .05  0 0 0 0 .15  0 0 0 0 .1  0 0 0 .8 0"></feColorMatrix>
            <feOffset dx="0" dy="1"></feOffset>
            <feGaussianBlur stdDeviation="1"></feGaussianBlur>
            <feComposite in="SourceGraphic"></feComposite>
        </filter>
    </defs>
    <g fill="none" stroke="none" stroke-width="none" stroke-linecap="butt" stroke-linejoin="miter"
        stroke-miterlimit="none" stroke-dasharray="" stroke-dashoffset="0" font-family="none"
        font-weight="normal" font-size="none" text-anchor="start" mix-blend-mode="normal">
        <g id="Camada_1" fill="#000000" stroke="none" stroke-width="1" stroke-miterlimit="4"
            font-family="&quot;Open Sans&quot;, sans-serif" font-size="14"></g>
        <path
            d="M3,24c0,-11.59798 9.40202,-21 21,-21c11.59798,0 21,9.40202 21,21c0,11.59798 -9.40202,21 -21,21c-11.59798,0 -21,-9.40202 -21,-21z"
            fill="#52c79c" stroke-width="1" stroke-miterlimit="10" font-family="sans-serif"
            font-size="12" filter="url(#dropshadow)"></path>
        <path
            d="M25.43098,44.95201l-13.91251,-13.91251c0.00261,0.00261 0.00523,0.00522 0.00784,0.00783l-0.00783,-0.00783c-0.67798,-0.67854 -1.21015,-1.46776 -1.58241,-2.34756l3.92919,3.92919c0.00001,0 0.00001,0.00001 0.00002,0.00001l-3.92921,-3.92921c-0.38612,-0.91179 -0.58144,-1.87878 -0.58144,-2.87578c0,-0.99587 0.1959,-1.96372 0.58144,-2.87551c0.37253,-0.87981 0.90443,-1.6696 1.58241,-2.34729l0.00001,0.00001c0.67769,-0.67797 1.46747,-1.21015 2.34727,-1.5824l0,0c0.91179,-0.38584 1.87936,-0.58116 2.87578,-0.58116l1.93766,1.93766l0.00001,0l-1.93766,-1.93766l6.30952,0l-0.53813,-0.53813c0,-2.74246 2.23094,-4.9734 4.9734,-4.9734l5.20241,0c1.67383,-0.00001 3.036,-1.36189 3.036,-3.03601l1.93767,0l5.48827,5.48827c1.18806,2.63245 1.84929,5.55374 1.84929,8.62947c0,11.11704 -8.63843,20.21646 -19.56902,20.95201z"
            fill="url(#color-1)" stroke-width="1" stroke-miterlimit="10" font-family="sans-serif"
            font-size="12"></path>
        <path
            d="M37.02579,22.94064c0.38612,0.91179 0.58116,1.87907 0.58116,2.87551c0,0.99672 -0.19561,1.96399 -0.58116,2.87579c-0.37196,0.87981 -0.90443,1.66931 -1.58241,2.34757c-0.67769,0.67769 -1.46719,1.20988 -2.34672,1.58184c-0.91208,0.38584 -1.87935,0.58173 -2.87607,0.58173c-1.16402,0 -2.32464,-0.27855 -3.35646,-0.80592c-0.69241,-0.35385 -1.33047,-0.82093 -1.88134,-1.37406l-3.00346,0c-0.55059,0.55313 -1.18836,1.02021 -1.88105,1.37406c-1.03154,0.52766 -2.19216,0.80592 -3.35674,0.80592c-0.99643,0 -1.96371,-0.19646 -2.87579,-0.58173c-0.87981,-0.37225 -1.66959,-0.90415 -2.34728,-1.58184c-0.67797,-0.67854 -1.21016,-1.46776 -1.58241,-2.34757c-0.38612,-0.91179 -0.58144,-1.87879 -0.58144,-2.87579c0,-0.99587 0.19589,-1.96371 0.58144,-2.87551c0.37253,-0.87981 0.90443,-1.66959 1.58241,-2.34728c0.67769,-0.67797 1.46748,-1.21016 2.34728,-1.58241c0.91179,-0.38584 1.87935,-0.58116 2.87579,-0.58116l13.47961,0c0.99672,0 1.96399,0.19561 2.87636,0.58116c0.87952,0.37253 1.66931,0.90443 2.347,1.58241c0.67797,0.67797 1.21016,1.46776 1.58127,2.34728z M35.67098,25.81671c0,-3.0094 -2.43985,-5.44925 -5.44982,-5.44925l-13.47961,0c-3.00912,0 -5.44897,2.43985 -5.44897,5.44925c0,3.00997 2.43957,5.44925 5.44897,5.44925c1.78254,0 3.36523,-0.85631 4.3594,-2.17998l4.76081,0c0.99417,1.32367 2.57714,2.17998 4.3594,2.17998c3.00997,0 5.44925,-2.43957 5.44982,-5.44925z M24.45033,17.89166l-1.93739,0c0,-2.74246 2.23094,-4.9734 4.9734,-4.9734l5.20241,0c1.67384,0 3.03601,-1.36189 3.03601,-3.03601l1.93767,0c0,2.74246 -2.23122,4.9734 -4.9734,4.9734l-5.20269,0c-1.67384,0 -3.03629,1.36217 -3.03601,3.03601z M20.0111,25.27179l0,1.08985c0,0.30119 -0.24401,0.54521 -0.54493,0.54521l-1.63478,0l0,1.63421c0,0.30148 -0.24373,0.54493 -0.54464,0.54493l-1.08985,0c-0.30091,0 -0.54493,-0.24373 -0.54493,-0.54493l0,-1.63421l-1.63449,0c-0.30063,0 -0.54464,-0.2443 -0.54464,-0.54521l0,-1.08985c0,-0.30119 0.24373,-0.54521 0.54464,-0.54521l1.63449,0l0,-1.63421c0,-0.30091 0.24401,-0.54493 0.54493,-0.54493l1.08985,0c0.30063,0 0.54464,0.2443 0.54464,0.54493l0,1.63421l1.63478,0c0.30063,0 0.54493,0.24401 0.54493,0.54521z M26.95218,25.81643c0,-0.60191 0.48794,-1.08985 1.08985,-1.08985c0.60191,0 1.08985,0.48794 1.08985,1.08985c0,0.60191 -0.48794,1.08985 -1.08985,1.08985c-0.60191,0 -1.08985,-0.48794 -1.08985,-1.08985z M31.31129,25.81643c0,-0.60191 0.48794,-1.08985 1.08985,-1.08985c0.60191,0 1.08985,0.48794 1.08985,1.08985c0,0.60191 -0.48794,1.08985 -1.08985,1.08985c-0.60191,0 -1.08985,-0.48794 -1.08985,-1.08985z M29.13159,23.63701c0,-0.60175 0.48782,-1.08957 1.08957,-1.08957c0.60175,0 1.08957,0.48782 1.08957,1.08957c0,0.60175 -0.48782,1.08957 -1.08957,1.08957c-0.60175,0 -1.08957,-0.48782 -1.08957,-1.08957z M29.13159,27.99613c0,-0.60175 0.48782,-1.08957 1.08957,-1.08957c0.60175,0 1.08957,0.48782 1.08957,1.08957c0,0.60175 -0.48782,1.08957 -1.08957,1.08957c-0.60175,0 -1.08957,-0.48782 -1.08957,-1.08957z"
            fill="#ccffed" stroke-width="0" stroke-miterlimit="10" font-family="sans-serif"
            font-size="12"></path>
    </g>
</svg>